# xmcd
#
# Track frame offsets:
#	150
#	30486
#	52917
#	82674
#	102543
#	122610
#	137117
#	171127
#	187362
#	210821
#	247422
#	269513
#
# Disc length: 4032 seconds
#
# Revision: 0
# Processed by: cddbd v1.5.2PL0 Copyright (c) Steve Scherf et al.
# Submitted via: EasyCDDAExtractor 2010.6.0.0
#
DISCID=a70fbe0c
DTITLE=Jimmy Somerville - Dare To Love (Deluxe Edition) CD2
DYEAR=2012
DGENRE=Pop
TTITLE0=Heartbeat (Mars Plastic Mix)
TTITLE1=Hurts So Good (12" Steely and Clevie Dub)
TTITLE2=Safe (Get Far Mix)
TTITLE3=Been So Long (Remix)
TTITLE4=Nothing Said, Nothing Done (Remix)
TTITLE5=Up And Away
TTITLE6=By Your Side (Miss You Like Crazy Mix)
TTITLE7=Cry (BBC Unplugged Live)
TTITLE8=Love You Forever (Remix)
TTITLE9=Heartbeat (Armand´s Cardiac Mix)
TTITLE10=Hurts So Good (12" Sly and Robbie Dub Mix)
TTITLE11=Safe ( DJ Dovski Extended Mix)
EXTD=
EXTT0=
EXTT1=
EXTT2=
EXTT3=
EXTT4=
EXTT5=
EXTT6=
EXTT7=
EXTT8=
EXTT9=
EXTT10=
EXTT11=
PLAYORDER=
